<?xml version="1.0" encoding="utf-8"?>
<svg viewBox="142.902 111.232 187.161 188.705" xmlns="http://www.w3.org/2000/svg">
  <path style="stroke: rgb(0, 0, 0);"/>
  <path style="stroke: rgb(0, 0, 0);"/>
  <path style="stroke: rgb(0, 0, 0);"/>
  <path style="stroke: rgb(0, 0, 0);"/>
  <path style="stroke: rgb(0, 0, 0);"/>
  <path style="stroke: rgb(0, 0, 0);"/>
  <path style="stroke: rgb(0, 0, 0);"/>
  <path style="stroke: rgb(0, 0, 0);"/>
  <path style="stroke: rgb(0, 0, 0);"/>
  <path style="stroke: rgb(0, 0, 0);" d="M 236.552 136.523"/>
  <path style="stroke: rgb(0, 0, 0);" d="M 247.154 153.8 L 247.546 178.929 L 219.865 179.125 L 219.865 222.709 L 246.761 222.512 L 246.957 247.249 L 166.858 247.249 L 167.054 222.512 L 191.987 222.709 L 191.791 179.321 L 167.643 179.518 L 167.447 154.585 Z M 167.447 121.231 L 269.142 121.014 L 278.172 123.566 L 286.811 127.1 L 296.43 132.793 L 306.246 143.984 L 311.351 157.137 L 312.921 166.953 L 312.725 176.966 L 311.743 183.444 L 305.854 194.046 L 301.338 199.935 L 303.891 202.88 L 308.013 208.377 L 310.958 216.23 L 312.725 224.279 L 313.118 230.954 L 312.725 238.611 L 311.743 245.089 L 309.584 251.568 L 306.835 256.869 L 302.713 261.973 L 297.608 267.47 L 285.829 275.519 L 274.246 279.838 L 243.227 280.82 L 166.269 280.82 L 166.662 254.208 L 271.301 253.161 C 271.301 253.161 276.729 250.281 280.332 246.682 C 285.295 241.725 286.8 236.751 285.633 231.369 C 283.277 220.506 277.125 214.354 267.178 212.914 L 231.644 212.522 L 232.016 187.392 L 265.215 187.392 C 271.286 187.086 276.063 184.992 279.547 181.11 C 284.042 176.103 285.743 170.933 284.651 165.601 C 282.426 154.738 275.751 148.586 264.626 147.147 L 167.25 146.95 Z"/>
</svg>